<?xml version="1.0" encoding="utf-8"?>
<!-- Generator: Adobe Illustrator 16.0.3, SVG Export Plug-In . SVG Version: 6.00 Build 0)  -->
<!DOCTYPE svg PUBLIC "-//W3C//DTD SVG 1.1//EN" "http://www.w3.org/Graphics/SVG/1.1/DTD/svg11.dtd">
<svg version="1.1" xmlns="http://www.w3.org/2000/svg" xmlns:xlink="http://www.w3.org/1999/xlink" x="0px" y="0px" width="688.5px"
	 height="154px" viewBox="1 0 688.5 154" enable-background="new 1 0 688.5 154" xml:space="preserve">
<g id="Layer_1">
	<path fill="#FFBB00" d="M212.598,104.445c7.811-7.811,7.811-20.474,0-28.284l-49.555-49.555l-31.85,31.848L148.9,76.161
		c7.811,7.811,7.811,20.474,0,28.284l-17.707,17.707L163.043,154L212.598,104.445z"/>
	<path fill="#FFBB00" d="M15.142,49.555c-7.811,7.811-7.811,20.474,0,28.284l49.555,49.556l31.848-31.85L78.839,77.839
		c-7.811-7.811-7.811-20.474,0-28.284l17.707-17.706L64.697,0L15.142,49.555z"/>
	<path fill="#FFA140" d="M194.884,58.448l-45.546,45.546c7.37-7.84,7.225-20.172-0.438-27.833l-17.707-17.707l31.85-31.848
		L194.884,58.448z"/>
	<path fill="#FFA140" d="M32.88,95.577l31.816,31.817l31.848-31.85L78.839,77.839c-7.488-7.488-7.797-19.438-0.926-27.294
		L32.88,95.577z"/>
</g>
<g id="Layer_2">
	<g>
		<path d="M300.922,52.419v10.688h-48.996V3.847h48.045v10.688h-33.547V28.08h26.139v10.265h-26.139v14.075H300.922z"/>
		<path d="M377.233,39.191c0,8.184-2.292,14.356-6.878,18.519s-11.395,6.244-20.424,6.244c-8.959,0-15.732-2.081-20.318-6.244
			c-4.515-4.163-6.772-10.335-6.772-18.519V3.847h14.498V38.98c0,4.656,1.022,8.113,3.069,10.371c2.045,2.187,5.221,3.28,9.523,3.28
			c4.374,0,7.584-1.093,9.63-3.28c2.116-2.258,3.175-5.715,3.175-10.371V3.847h14.497V39.191z"/>
		<path d="M429.121,41.202h-11.324v21.905h-14.391V3.847h28.148c7.196,0,12.84,1.658,16.932,4.974
			c4.162,3.245,6.244,7.831,6.244,13.757c0,4.163-1.094,7.725-3.281,10.688c-2.115,2.893-5.149,5.009-9.101,6.35l15.556,23.493
			h-15.767L429.121,41.202z M417.797,31.572h12.171c6.983,0,10.477-2.857,10.477-8.572s-3.493-8.572-10.477-8.572h-12.171V31.572z"
			/>
		<path d="M505.875,3c9.383,0,16.756,2.716,22.116,8.148c5.434,5.361,8.149,12.805,8.149,22.329s-2.716,17.002-8.149,22.434
			c-5.36,5.362-12.733,8.043-22.116,8.043c-9.453,0-16.896-2.681-22.328-8.043c-5.362-5.432-8.043-12.91-8.043-22.434
			s2.681-16.967,8.043-22.329C488.979,5.716,496.422,3,505.875,3z M505.875,14.323c-5.079,0-8.995,1.658-11.746,4.974
			c-2.751,3.245-4.127,7.972-4.127,14.18c0,6.208,1.376,10.97,4.127,14.286c2.751,3.245,6.667,4.868,11.746,4.868
			c5.009,0,8.889-1.623,11.641-4.868c2.751-3.316,4.127-8.078,4.127-14.286c0-6.208-1.376-10.935-4.127-14.18
			C514.764,15.981,510.884,14.323,505.875,14.323z"/>
		<path d="M587.569,3.847c7.056,0,12.628,1.729,16.72,5.185c4.093,3.457,6.138,8.254,6.138,14.392
			c0,6.067-2.045,10.829-6.138,14.286c-4.092,3.386-9.664,5.08-16.72,5.08h-13.122v20.318h-14.498V3.847H587.569z M585.664,32.419
			c6.984,0,10.477-2.963,10.477-8.889c0-6.067-3.492-9.101-10.477-9.101h-11.217v17.99H585.664z"/>
		<path d="M681.946,52.419v10.688H632.95V3.847h48.044v10.688h-33.546V28.08h26.139v10.265h-26.139v14.075H681.946z"/>
		<path d="M274.361,92.046c5.714,0,10.582,1.022,14.604,3.069c4.021,1.975,7.301,5.044,9.842,9.205l-6.35,5.716
			c-1.905-3.81-4.233-6.526-6.984-8.148c-2.752-1.693-6.42-2.54-11.006-2.54c-4.727,0-8.501,0.918-11.323,2.752
			c-2.751,1.834-4.127,4.127-4.127,6.879c0,2.115,0.741,3.809,2.222,5.078c1.482,1.271,3.352,2.258,5.609,2.963
			c2.258,0.636,5.326,1.306,9.207,2.012c5.008,0.988,9.029,1.975,12.063,2.963c3.034,0.988,5.645,2.609,7.832,4.867
			c2.187,2.258,3.28,5.326,3.28,9.207c0,5.149-2.258,9.276-6.772,12.382c-4.445,3.032-10.301,4.55-17.566,4.55
			c-6.491,0-11.994-1.094-16.509-3.281c-4.444-2.257-7.831-5.326-10.159-9.205l6.35-5.82c1.693,3.526,4.232,6.242,7.619,8.147
			s7.619,2.857,12.699,2.857c4.797,0,8.642-0.812,11.534-2.435c2.893-1.621,4.339-3.88,4.339-6.771c0-2.047-0.741-3.669-2.223-4.868
			c-1.481-1.271-3.315-2.187-5.502-2.752c-2.188-0.636-5.221-1.34-9.102-2.116c-4.938-0.917-8.994-1.87-12.17-2.857
			c-3.104-0.987-5.75-2.61-7.937-4.867c-2.187-2.258-3.28-5.327-3.28-9.207c0-3.245,0.952-6.208,2.857-8.889
			c1.904-2.752,4.656-4.903,8.254-6.455C265.33,92.857,269.563,92.046,274.361,92.046z"/>
		<path d="M364.75,92.893v59.26h-8.467v-26.348h-33.122v26.348h-8.466v-59.26h8.466v25.609h33.122V92.893H364.75z"/>
		<path d="M433.972,129.719c0,7.69-2.152,13.51-6.455,17.461c-4.233,3.881-10.44,5.82-18.625,5.82
			c-8.113,0-14.321-1.939-18.625-5.82c-4.233-3.951-6.349-9.771-6.349-17.461V92.893h8.465v35.662c0,5.785,1.341,10.088,4.021,12.91
			c2.751,2.822,6.914,4.233,12.487,4.233c5.644,0,9.806-1.411,12.487-4.233c2.751-2.822,4.127-7.125,4.127-12.91V92.893h8.466
			V129.719z"/>
		<path d="M498.36,100.194h-21.694v51.958h-8.465v-51.958h-21.8v-7.302h51.959V100.194z"/>
		<path d="M556.646,100.194h-21.693v51.958h-8.466v-51.958h-21.8v-7.302h51.959V100.194z"/>
		<path d="M613.556,144.852v7.301h-43.812v-59.26h8.467v51.959H613.556z"/>
		<path d="M677.778,144.852v7.301h-45.822v-59.26h44.446v7.302h-35.979v18.308h28.148v7.303h-28.148v19.047H677.778z"/>
	</g>
	<g display="none">
		<path display="inline" fill="#FFFFFF" d="M300.922,52.419v10.688h-48.996V3.847h48.045v10.688h-33.547V28.08h26.139v10.265
			h-26.139v14.075H300.922z"/>
		<path display="inline" fill="#FFFFFF" d="M377.233,39.191c0,8.184-2.292,14.356-6.878,18.519s-11.395,6.244-20.424,6.244
			c-8.959,0-15.732-2.081-20.318-6.244c-4.515-4.163-6.772-10.335-6.772-18.519V3.847h14.498V38.98
			c0,4.656,1.022,8.113,3.069,10.371c2.045,2.187,5.221,3.28,9.523,3.28c4.374,0,7.584-1.093,9.63-3.28
			c2.116-2.258,3.175-5.715,3.175-10.371V3.847h14.497V39.191z"/>
		<path display="inline" fill="#FFFFFF" d="M429.121,41.202h-11.324v21.905h-14.391V3.847h28.148c7.196,0,12.84,1.658,16.932,4.974
			c4.162,3.245,6.244,7.831,6.244,13.757c0,4.163-1.094,7.725-3.281,10.688c-2.115,2.893-5.149,5.009-9.101,6.35l15.556,23.493
			h-15.767L429.121,41.202z M417.797,31.572h12.171c6.983,0,10.477-2.857,10.477-8.572s-3.493-8.572-10.477-8.572h-12.171V31.572z"
			/>
		<path display="inline" fill="#FFFFFF" d="M505.875,3c9.383,0,16.756,2.716,22.116,8.148c5.434,5.361,8.149,12.805,8.149,22.329
			s-2.716,17.002-8.149,22.434c-5.36,5.362-12.733,8.043-22.116,8.043c-9.453,0-16.896-2.681-22.328-8.043
			c-5.362-5.432-8.043-12.91-8.043-22.434s2.681-16.967,8.043-22.329C488.979,5.716,496.422,3,505.875,3z M505.875,14.323
			c-5.079,0-8.995,1.658-11.746,4.974c-2.751,3.245-4.127,7.972-4.127,14.18c0,6.208,1.376,10.97,4.127,14.286
			c2.751,3.245,6.667,4.868,11.746,4.868c5.009,0,8.889-1.623,11.641-4.868c2.751-3.316,4.127-8.078,4.127-14.286
			c0-6.208-1.376-10.935-4.127-14.18C514.764,15.981,510.884,14.323,505.875,14.323z"/>
		<path display="inline" fill="#FFFFFF" d="M587.569,3.847c7.056,0,12.628,1.729,16.72,5.185c4.093,3.457,6.138,8.254,6.138,14.392
			c0,6.067-2.045,10.829-6.138,14.286c-4.092,3.386-9.664,5.08-16.72,5.08h-13.122v20.318h-14.498V3.847H587.569z M585.664,32.419
			c6.984,0,10.477-2.963,10.477-8.889c0-6.067-3.492-9.101-10.477-9.101h-11.217v17.99H585.664z"/>
		<path display="inline" fill="#FFFFFF" d="M681.946,52.419v10.688H632.95V3.847h48.044v10.688h-33.546V28.08h26.139v10.265h-26.139
			v14.075H681.946z"/>
		<path display="inline" fill="#FFFFFF" d="M274.361,92.046c5.714,0,10.582,1.022,14.604,3.069c4.021,1.975,7.301,5.044,9.842,9.205
			l-6.35,5.716c-1.905-3.81-4.233-6.526-6.984-8.148c-2.752-1.693-6.42-2.54-11.006-2.54c-4.727,0-8.501,0.918-11.323,2.752
			c-2.751,1.834-4.127,4.127-4.127,6.879c0,2.115,0.741,3.809,2.222,5.078c1.482,1.271,3.352,2.258,5.609,2.963
			c2.258,0.636,5.326,1.306,9.207,2.012c5.008,0.988,9.029,1.975,12.063,2.963c3.034,0.988,5.645,2.609,7.832,4.867
			c2.187,2.258,3.28,5.326,3.28,9.207c0,5.149-2.258,9.276-6.772,12.382c-4.445,3.032-10.301,4.55-17.566,4.55
			c-6.491,0-11.994-1.094-16.509-3.281c-4.444-2.257-7.831-5.326-10.159-9.205l6.35-5.82c1.693,3.526,4.232,6.242,7.619,8.147
			s7.619,2.857,12.699,2.857c4.797,0,8.642-0.812,11.534-2.435c2.893-1.621,4.339-3.88,4.339-6.771c0-2.047-0.741-3.669-2.223-4.868
			c-1.481-1.271-3.315-2.187-5.502-2.752c-2.188-0.636-5.221-1.34-9.102-2.116c-4.938-0.917-8.994-1.87-12.17-2.857
			c-3.104-0.987-5.75-2.61-7.937-4.867c-2.187-2.258-3.28-5.327-3.28-9.207c0-3.245,0.952-6.208,2.857-8.889
			c1.904-2.752,4.656-4.903,8.254-6.455C265.33,92.857,269.563,92.046,274.361,92.046z"/>
		<path display="inline" fill="#FFFFFF" d="M364.75,92.893v59.26h-8.467v-26.348h-33.122v26.348h-8.466v-59.26h8.466v25.609h33.122
			V92.893H364.75z"/>
		<path display="inline" fill="#FFFFFF" d="M433.972,129.719c0,7.69-2.152,13.51-6.455,17.461c-4.233,3.881-10.44,5.82-18.625,5.82
			c-8.113,0-14.321-1.939-18.625-5.82c-4.233-3.951-6.349-9.771-6.349-17.461V92.893h8.465v35.662c0,5.785,1.341,10.088,4.021,12.91
			c2.751,2.822,6.914,4.233,12.487,4.233c5.644,0,9.806-1.411,12.487-4.233c2.751-2.822,4.127-7.125,4.127-12.91V92.893h8.466
			V129.719z"/>
		<path display="inline" fill="#FFFFFF" d="M498.36,100.194h-21.694v51.958h-8.465v-51.958h-21.8v-7.302h51.959V100.194z"/>
		<path display="inline" fill="#FFFFFF" d="M556.646,100.194h-21.693v51.958h-8.466v-51.958h-21.8v-7.302h51.959V100.194z"/>
		<path display="inline" fill="#FFFFFF" d="M613.556,144.852v7.301h-43.812v-59.26h8.467v51.959H613.556z"/>
		<path display="inline" fill="#FFFFFF" d="M677.778,144.852v7.301h-45.822v-59.26h44.446v7.302h-35.979v18.308h28.148v7.303
			h-28.148v19.047H677.778z"/>
	</g>
</g>
</svg>
