<svg width="24" height="21" viewBox="0 0 24 21" fill="none" xmlns="http://www.w3.org/2000/svg">
<path d="M19.5391 8C20.3203 8 21.1406 8.26042 22 8.78125C22.8594 9.27604 23.2891 9.84896 23.2891 10.5C23.2891 11.151 22.8594 11.737 22 12.2578C21.1406 12.7526 20.3203 13 19.5391 13H15.0859L10.9844 20.1875C10.8542 20.3958 10.6719 20.5 10.4375 20.5H7.85938C7.65104 20.5 7.48177 20.4089 7.35156 20.2266C7.2474 20.0703 7.22135 19.901 7.27344 19.7188L9.1875 13H5.16406L3.48438 15.2656C3.35417 15.4219 3.1849 15.5 2.97656 15.5H1.41406C1.20573 15.5 1.03646 15.4219 0.90625 15.2656C0.802083 15.1094 0.763021 14.9271 0.789062 14.7188L2.03906 10.5L0.789062 6.28125C0.763021 6.07292 0.802083 5.89062 0.90625 5.73438C1.03646 5.57812 1.20573 5.5 1.41406 5.5H2.97656C3.1849 5.5 3.35417 5.57812 3.48438 5.73438L5.16406 8H9.1875L7.27344 1.28125C7.2474 1.20312 7.23438 1.11198 7.23438 1.00781C7.26042 0.903646 7.29948 0.8125 7.35156 0.734375C7.42969 0.65625 7.50781 0.604167 7.58594 0.578125C7.66406 0.526042 7.75521 0.5 7.85938 0.5H10.4375C10.6719 0.5 10.8542 0.604167 10.9844 0.8125L15.0859 8H19.5391Z" fill="#EBEBEB"/>
</svg>
