<svg width="24" height="21" viewBox="0 0 24 21" fill="none" xmlns="http://www.w3.org/2000/svg">
<path d="M8.52344 1.94531C9.48698 0.981771 10.6458 0.5 12 0.5C13.3542 0.5 14.513 0.981771 15.4766 1.94531C16.4401 2.90885 16.9219 4.06771 16.9219 5.42188C16.9219 7.03646 15.4375 9.58854 12.4688 13.0781C12.3385 13.2344 12.1823 13.3125 12 13.3125C11.8177 13.3125 11.6615 13.2344 11.5312 13.0781C8.5625 9.58854 7.07812 7.03646 7.07812 5.42188C7.07812 4.06771 7.5599 2.90885 8.52344 1.94531ZM10.8281 6.59375C11.1667 6.90625 11.5573 7.0625 12 7.0625C12.4427 7.0625 12.8203 6.90625 13.1328 6.59375C13.4714 6.25521 13.6406 5.86458 13.6406 5.42188C13.6406 4.97917 13.4714 4.60156 13.1328 4.28906C12.8203 3.95052 12.4427 3.78125 12 3.78125C11.5573 3.78125 11.1667 3.95052 10.8281 4.28906C10.5156 4.60156 10.3594 4.97917 10.3594 5.42188C10.3594 5.86458 10.5156 6.25521 10.8281 6.59375ZM1.53125 8.9375L6.17969 7.0625C6.36198 7.63542 6.63542 8.2474 7 8.89844V18L1.60938 20.4609C1.50521 20.513 1.40104 20.526 1.29688 20.5C1.19271 20.474 1.10156 20.4349 1.02344 20.3828C0.945312 20.3307 0.880208 20.2526 0.828125 20.1484C0.776042 20.0703 0.75 19.9792 0.75 19.875V10.1094C0.75 9.875 0.828125 9.64062 0.984375 9.40625C1.14062 9.17188 1.32292 9.01562 1.53125 8.9375ZM10.5547 13.8984C10.9453 14.3411 11.4271 14.5625 12 14.5625C12.5729 14.5625 13.0547 14.3411 13.4453 13.8984C14.3047 12.8568 15.0729 11.8542 15.75 10.8906V20.5L8.25 18V10.8906C8.92708 11.8542 9.69531 12.8568 10.5547 13.8984ZM22.3906 6.78906C22.5469 6.73698 22.6771 6.73698 22.7812 6.78906C22.9115 6.8151 23.0156 6.88021 23.0938 6.98438C23.1979 7.08854 23.25 7.21875 23.25 7.375V17.1406C23.25 17.2969 23.2109 17.4531 23.1328 17.6094C23.0807 17.7656 22.9896 17.9089 22.8594 18.0391C22.7292 18.1693 22.599 18.2604 22.4688 18.3125L17 20.5V9.25L22.3906 6.78906Z" fill="#EBEBEB"/>
</svg>
