<svg width="16" height="16" viewBox="0 0 16 16" fill="none" xmlns="http://www.w3.org/2000/svg">
<path d="M9.67746 9.54464C10.4632 8.75893 10.856 7.81548 10.856 6.71429C10.856 5.61309 10.4632 4.67262 9.67746 3.89286C8.89769 3.10714 7.95722 2.71428 6.85603 2.71428C5.75484 2.71428 4.81138 3.10714 4.02567 3.89286C3.24591 4.67262 2.85603 5.61309 2.85603 6.71429C2.85603 7.81548 3.24591 8.75893 4.02567 9.54464C4.81138 10.3244 5.75484 10.7143 6.85603 10.7143C7.95722 10.7143 8.89769 10.3244 9.67746 9.54464ZM15.4275 14.1429C15.4275 14.4524 15.3144 14.7202 15.0882 14.9464C14.862 15.1726 14.5941 15.2857 14.2846 15.2857C13.9632 15.2857 13.6953 15.1726 13.481 14.9464L10.4185 11.8929C9.35305 12.631 8.16555 13 6.85603 13C6.00484 13 5.18936 12.8363 4.4096 12.5089C3.63579 12.1756 2.96615 11.7292 2.40067 11.1696C1.84115 10.6042 1.39472 9.93452 1.06138 9.16071C0.734003 8.38095 0.570312 7.56548 0.570312 6.71429C0.570312 5.86309 0.734003 5.05059 1.06138 4.27678C1.39472 3.49702 1.84115 2.82738 2.40067 2.26786C2.96615 1.70238 3.63579 1.25595 4.4096 0.928571C5.18936 0.595237 6.00484 0.428571 6.85603 0.428571C7.70722 0.428571 8.51972 0.595237 9.29353 0.928571C10.0733 1.25595 10.7429 1.70238 11.3025 2.26786C11.8679 2.82738 12.3144 3.49702 12.6417 4.27678C12.9751 5.05059 13.1417 5.86309 13.1417 6.71429C13.1417 8.02381 12.7727 9.21131 12.0346 10.2768L15.0971 13.3393C15.3173 13.5595 15.4275 13.8274 15.4275 14.1429Z" fill="#333333"/>
</svg>
