<svg width="26" height="21" viewBox="0 0 26 21" fill="none" xmlns="http://www.w3.org/2000/svg">
<path d="M19.9141 15.0703C20.2786 15.9557 20.8516 16.6719 21.6328 17.2188C22.4401 17.7396 23.4167 18 24.5625 18C24.8229 18 25.0443 18.0911 25.2266 18.2734C25.4089 18.4557 25.5 18.6771 25.5 18.9375V19.5625C25.5 19.8229 25.4089 20.0443 25.2266 20.2266C25.0443 20.4089 24.8229 20.5 24.5625 20.5C22.2708 20.5 20.4089 19.7318 18.9766 18.1953C18.6901 18.8724 18.2344 19.4193 17.6094 19.8359C16.9844 20.2786 16.2812 20.5 15.5 20.5H10.5C9.97917 20.5 9.48438 20.3958 9.01562 20.1875C8.57292 20.0052 8.16927 19.7318 7.80469 19.3672C7.46615 19.0286 7.20573 18.638 7.02344 18.1953C5.59115 19.7318 3.72917 20.5 1.4375 20.5C1.17708 20.5 0.955729 20.4089 0.773438 20.2266C0.591146 20.0443 0.5 19.8229 0.5 19.5625V18.9375C0.5 18.6771 0.591146 18.4557 0.773438 18.2734C0.955729 18.0911 1.17708 18 1.4375 18C2.58333 18 3.5599 17.7396 4.36719 17.2188C5.17448 16.6719 5.7474 15.9557 6.08594 15.0703L3.35156 12.3359C3.03906 11.9974 2.9349 11.6068 3.03906 11.1641C3.14323 10.6953 3.41667 10.3958 3.85938 10.2656L5.5 9.71875V4.25C5.5 3.91146 5.61719 3.625 5.85156 3.39062C6.11198 3.13021 6.41146 3 6.75 3H9.25V1.4375C9.25 1.17708 9.34115 0.955729 9.52344 0.773438C9.70573 0.591146 9.92708 0.5 10.1875 0.5H15.8125C16.0729 0.5 16.2943 0.591146 16.4766 0.773438C16.6589 0.955729 16.75 1.17708 16.75 1.4375V3H19.25C19.5885 3 19.875 3.13021 20.1094 3.39062C20.3698 3.625 20.5 3.91146 20.5 4.25V9.71875L22.1406 10.2656C22.5833 10.3958 22.8568 10.6953 22.9609 11.1641C23.0651 11.6068 22.9609 11.9974 22.6484 12.3359L19.9141 15.0703ZM8 5.5V8.9375L12.6094 7.45312C12.7396 7.40104 12.8698 7.375 13 7.375C13.1302 7.375 13.2604 7.40104 13.3906 7.45312L18 8.9375V5.5H8Z" fill="#EBEBEB"/>
</svg>
