<svg width="20" height="21" viewBox="0 0 20 21" fill="none" xmlns="http://www.w3.org/2000/svg">
<path d="M3.125 3.66406C5.02604 1.76302 7.31771 0.8125 10 0.8125C12.6823 0.8125 14.9609 1.76302 16.8359 3.66406C18.737 5.53906 19.6875 7.81771 19.6875 10.5C19.6875 13.1823 18.737 15.474 16.8359 17.375C14.9609 19.25 12.6823 20.1875 10 20.1875C7.31771 20.1875 5.02604 19.25 3.125 17.375C1.25 15.474 0.3125 13.1823 0.3125 10.5C0.3125 7.81771 1.25 5.53906 3.125 3.66406ZM12.2266 14.4844C12.487 14.6667 12.7083 14.6406 12.8906 14.4062L13.9844 12.8828C14.1667 12.6224 14.1406 12.401 13.9062 12.2188L11.4062 10.4219V5.03125C11.4062 4.71875 11.25 4.5625 10.9375 4.5625H9.0625C8.75 4.5625 8.59375 4.71875 8.59375 5.03125V11.5938C8.59375 11.75 8.65885 11.8802 8.78906 11.9844L12.2266 14.4844Z" fill="black"/>
</svg>
