<svg width="18" height="21" viewBox="0 0 18 21" fill="none" xmlns="http://www.w3.org/2000/svg">
<path d="M17.75 4.25V14.25C17.75 15.2656 17.2422 16.151 16.2266 16.9062C15.2109 17.6354 14.026 18 12.6719 18L15.1328 19.9531C15.237 20.0312 15.263 20.1354 15.2109 20.2656C15.1849 20.4219 15.0938 20.5 14.9375 20.5H3.0625C2.90625 20.5 2.80208 20.4219 2.75 20.2656C2.72396 20.1354 2.76302 20.0312 2.86719 19.9531L5.32812 18C3.97396 18 2.78906 17.6354 1.77344 16.9062C0.757812 16.151 0.25 15.2656 0.25 14.25V4.25C0.25 3.23438 0.757812 2.36198 1.77344 1.63281C2.8151 0.877604 3.97396 0.5 5.25 0.5H12.75C14.0521 0.5 15.2109 0.877604 16.2266 1.63281C17.2422 2.36198 17.75 3.23438 17.75 4.25ZM15.875 9.5625V5.1875C15.875 4.92708 15.7839 4.70573 15.6016 4.52344C15.4193 4.34115 15.1979 4.25 14.9375 4.25H3.0625C2.80208 4.25 2.58073 4.34115 2.39844 4.52344C2.21615 4.70573 2.125 4.92708 2.125 5.1875V9.5625C2.125 9.82292 2.21615 10.0443 2.39844 10.2266C2.58073 10.4089 2.80208 10.5 3.0625 10.5H14.9375C15.1979 10.5 15.4193 10.4089 15.6016 10.2266C15.7839 10.0443 15.875 9.82292 15.875 9.5625ZM10.5234 12.7266C10.1068 12.2839 9.59896 12.0625 9 12.0625C8.40104 12.0625 7.88021 12.2839 7.4375 12.7266C7.02083 13.1432 6.8125 13.651 6.8125 14.25C6.8125 14.849 7.02083 15.3698 7.4375 15.8125C7.88021 16.2292 8.40104 16.4375 9 16.4375C9.59896 16.4375 10.1068 16.2292 10.5234 15.8125C10.9661 15.3698 11.1875 14.849 11.1875 14.25C11.1875 13.651 10.9661 13.1432 10.5234 12.7266Z" fill="#EBEBEB"/>
</svg>
