<svg width="14" height="15" viewBox="0 0 14 15" fill="none" xmlns="http://www.w3.org/2000/svg">
<path d="M3.3817 13L4.1942 12.1875L2.09598 10.0893L1.28348 10.9018V11.8571H2.42634V13H3.3817ZM8.05134 4.71428C8.05134 4.58333 7.98586 4.51786 7.85491 4.51786C7.79539 4.51786 7.74479 4.53869 7.70313 4.58036L2.86384 9.41964C2.82217 9.46131 2.80134 9.5119 2.80134 9.57143C2.80134 9.70238 2.86682 9.76786 2.99777 9.76786C3.05729 9.76786 3.10789 9.74702 3.14955 9.70536L7.98884 4.86607C8.03051 4.8244 8.05134 4.77381 8.05134 4.71428ZM7.5692 3L11.2835 6.71429L3.85491 14.1429H0.140625V10.4286L7.5692 3ZM13.6674 3.85714C13.6674 4.17262 13.5573 4.44048 13.3371 4.66071L11.8549 6.14286L8.14062 2.42857L9.62277 0.955357C9.83705 0.729166 10.1049 0.616071 10.4263 0.616071C10.7418 0.616071 11.0126 0.729166 11.2388 0.955357L13.3371 3.04464C13.5573 3.27679 13.6674 3.54762 13.6674 3.85714Z" fill="#171717"/>
</svg>
