<svg width="272" height="60" viewBox="0 0 272 60" fill="none" xmlns="http://www.w3.org/2000/svg">
<path d="M122.851 20.0336V24.1978H103.762V1.10914H122.48V5.27333H109.41V10.5507H119.594V14.55H109.41V20.0336H122.851Z" fill="black"/>
<path d="M152.583 14.8799C152.583 18.0683 151.69 20.4733 149.903 22.095C148.116 23.7168 145.464 24.5276 141.946 24.5276C138.455 24.5276 135.816 23.7168 134.03 22.095C132.271 20.4733 131.391 18.0683 131.391 14.8799V1.10914H137.039V14.7974C137.039 16.6115 137.438 17.9583 138.235 18.8379C139.032 19.69 140.269 20.116 141.946 20.116C143.65 20.116 144.901 19.69 145.698 18.8379C146.522 17.9583 146.935 16.6115 146.935 14.7974V1.10914H152.583V14.8799Z" fill="black"/>
<path d="M172.799 15.6632H168.387V24.1978H162.78V1.10914H173.747C176.551 1.10914 178.75 1.75507 180.344 3.04693C181.965 4.31131 182.776 6.09793 182.776 8.40679C182.776 10.0285 182.35 11.4166 181.498 12.571C180.674 13.6979 179.492 14.5225 177.952 15.0448L184.013 24.1978H177.87L172.799 15.6632ZM168.387 11.9113H173.129C175.85 11.9113 177.21 10.7981 177.21 8.57171C177.21 6.34531 175.85 5.2321 173.129 5.2321H168.387V11.9113Z" fill="black"/>
<path d="M202.703 0.779297C206.359 0.779297 209.231 1.83753 211.32 3.95398C213.436 6.04295 214.495 8.94278 214.495 12.6535C214.495 16.3641 213.436 19.2777 211.32 21.3941C209.231 23.4831 206.359 24.5276 202.703 24.5276C199.02 24.5276 196.12 23.4831 194.003 21.3941C191.914 19.2777 190.87 16.3641 190.87 12.6535C190.87 8.94278 191.914 6.04295 194.003 3.95398C196.12 1.83753 199.02 0.779297 202.703 0.779297ZM202.703 5.19087C200.724 5.19087 199.198 5.83681 198.126 7.12867C197.054 8.39305 196.518 10.2346 196.518 12.6535C196.518 15.0723 197.054 16.9276 198.126 18.2195C199.198 19.4838 200.724 20.116 202.703 20.116C204.654 20.116 206.166 19.4838 207.238 18.2195C208.31 16.9276 208.846 15.0723 208.846 12.6535C208.846 10.2346 208.31 8.39305 207.238 7.12867C206.166 5.83681 204.654 5.19087 202.703 5.19087Z" fill="black"/>
<path d="M234.532 1.10914C237.28 1.10914 239.452 1.78255 241.046 3.12939C242.64 4.47623 243.437 6.34531 243.437 8.73663C243.437 11.1005 242.64 12.9558 241.046 14.3026C239.452 15.622 237.28 16.2817 234.532 16.2817H229.419V24.1978H223.771V1.10914H234.532ZM233.79 12.2412C236.511 12.2412 237.871 11.0867 237.871 8.77786C237.871 6.41402 236.511 5.2321 233.79 5.2321H229.419V12.2412H233.79Z" fill="black"/>
<path d="M271.302 20.0336V24.1978H252.213V1.10914H270.931V5.27333H257.861V10.5507H268.045V14.55H257.861V20.0336H271.302Z" fill="black"/>
<path d="M112.503 35.4726C114.729 35.4726 116.626 35.8711 118.192 36.6682C119.759 37.4379 121.037 38.6335 122.027 40.2552L119.553 42.4816C118.811 40.9974 117.904 39.9391 116.832 39.3069C115.76 38.6473 114.33 38.3174 112.544 38.3174C110.702 38.3174 109.232 38.6748 108.132 39.3894C107.06 40.104 106.524 40.9974 106.524 42.0693C106.524 42.8939 106.813 43.5536 107.39 44.0484C107.967 44.5431 108.696 44.9279 109.575 45.2028C110.455 45.4502 111.651 45.7113 113.162 45.9861C115.114 46.371 116.681 46.7558 117.862 47.1406C119.044 47.5254 120.061 48.1576 120.913 49.0371C121.766 49.9167 122.192 51.1124 122.192 52.6241C122.192 54.6306 121.312 56.2386 119.553 57.448C117.821 58.6299 115.54 59.2209 112.709 59.2209C110.18 59.2209 108.036 58.7948 106.277 57.9428C104.545 57.0632 103.226 55.8675 102.319 54.3558L104.793 52.0881C105.452 53.4625 106.442 54.5207 107.761 55.2628C109.081 56.005 110.73 56.376 112.709 56.376C114.578 56.376 116.076 56.0599 117.203 55.4278C118.33 54.7956 118.893 53.916 118.893 52.7891C118.893 51.9919 118.605 51.3598 118.027 50.8925C117.45 50.3977 116.735 50.0404 115.883 49.8205C115.031 49.5731 113.849 49.2983 112.338 48.9959C110.414 48.6386 108.833 48.2675 107.596 47.8827C106.387 47.4979 105.356 46.8657 104.504 45.9861C103.652 45.1066 103.226 43.9109 103.226 42.3992C103.226 41.1348 103.597 39.9804 104.339 38.9359C105.081 37.8639 106.153 37.0256 107.555 36.4209C108.984 35.7887 110.634 35.4726 112.503 35.4726Z" fill="black"/>
<path d="M147.719 35.8024V58.891H144.42V48.6248H131.516V58.891H128.217V35.8024H131.516V45.78H144.42V35.8024H147.719Z" fill="black"/>
<path d="M174.689 50.1503C174.689 53.1464 173.85 55.414 172.174 56.9532C170.524 58.465 168.106 59.2209 164.917 59.2209C161.756 59.2209 159.337 58.465 157.661 56.9532C156.012 55.414 155.187 53.1464 155.187 50.1503V35.8024H158.485V49.6968C158.485 51.9507 159.008 53.6274 160.052 54.7268C161.124 55.8263 162.746 56.376 164.917 56.376C167.116 56.376 168.738 55.8263 169.782 54.7268C170.854 53.6274 171.39 51.9507 171.39 49.6968V35.8024H174.689V50.1503Z" fill="black"/>
<path d="M199.775 38.6473H191.323V58.891H188.025V38.6473H179.531V35.8024H199.775V38.6473Z" fill="black"/>
<path d="M222.484 38.6473H214.032V58.891H210.733V38.6473H202.24V35.8024H222.484V38.6473Z" fill="black"/>
<path d="M244.656 56.0462V58.891H227.587V35.8024H230.886V56.0462H244.656Z" fill="black"/>
<path d="M269.678 56.0462V58.891H251.826V35.8024H269.142V38.6473H255.124V45.78H266.091V48.6248H255.124V56.0462H269.678Z" fill="black"/>
<path fill-rule="evenodd" clip-rule="evenodd" d="M82.4404 40.693C85.4834 37.65 85.4834 32.7162 82.4404 29.6732L63.1334 10.3662L50.7249 22.7746L57.6235 29.6732C60.6665 32.7162 60.6665 37.65 57.6235 40.693L50.7249 47.5916L63.1334 60L82.4404 40.693Z" fill="#304FFE"/>
<path fill-rule="evenodd" clip-rule="evenodd" d="M5.50993 19.307C2.46688 22.35 2.46688 27.2838 5.50993 30.3268L24.8169 49.6338L37.2254 37.2254L30.3269 30.3268C27.2838 27.2838 27.2838 22.35 30.3269 19.307L37.2254 12.4085L24.8169 -2.99173e-05L5.50993 19.307Z" fill="#304FFE"/>
<path fill-rule="evenodd" clip-rule="evenodd" d="M75.5392 22.7718L57.7939 40.517C60.6655 37.4626 60.6086 32.6581 57.6235 29.6729L50.725 22.7744L63.1334 10.366L75.5392 22.7718Z" fill="#0026CA"/>
<path fill-rule="evenodd" clip-rule="evenodd" d="M12.4209 37.2377L24.8169 49.6337L37.2253 37.2252L30.3268 30.3267C27.4092 27.4091 27.289 22.7535 29.966 19.6926L12.4209 37.2377Z" fill="#0026CA"/>
</svg>
