<svg width="19" height="15" viewBox="0 0 19 15" fill="none" xmlns="http://www.w3.org/2000/svg">
<path d="M7.85575 13.9286C7.85575 13.9583 7.85947 14.0327 7.86691 14.1518C7.87435 14.2708 7.87435 14.3713 7.86691 14.4531C7.86691 14.5275 7.85575 14.6131 7.83343 14.7098C7.81855 14.8065 7.78134 14.881 7.72182 14.933C7.66974 14.9777 7.59533 15 7.49861 15H3.92718C3.04176 15 2.28283 14.6875 1.65039 14.0625C1.02539 13.4301 0.712891 12.6711 0.712891 11.7857V3.92857C0.712891 3.04315 1.02539 2.28795 1.65039 1.66295C2.28283 1.03051 3.04176 0.714285 3.92718 0.714285H7.49861C7.59533 0.714285 7.67718 0.751488 7.74414 0.825893C7.81855 0.892857 7.85575 0.974702 7.85575 1.07143C7.85575 1.10119 7.85947 1.17559 7.86691 1.29464C7.87435 1.41369 7.87435 1.51414 7.86691 1.59598C7.86691 1.67039 7.85575 1.75595 7.83343 1.85268C7.81855 1.9494 7.78134 2.02381 7.72182 2.07589C7.66974 2.12053 7.59533 2.14286 7.49861 2.14286H3.92718C3.43611 2.14286 3.01572 2.31771 2.66602 2.66741C2.31631 3.01711 2.14146 3.4375 2.14146 3.92857V11.7857C2.14146 12.2768 2.31631 12.6972 2.66602 13.0469C3.01572 13.3966 3.43611 13.5714 3.92718 13.5714H7.14146C7.1489 13.5714 7.18983 13.5714 7.26423 13.5714C7.33864 13.5714 7.387 13.5714 7.40932 13.5714C7.43164 13.5714 7.47256 13.5751 7.53209 13.5826C7.59905 13.59 7.64369 13.6012 7.66602 13.6161C7.68834 13.631 7.7181 13.6533 7.7553 13.683C7.7925 13.7054 7.81855 13.7388 7.83343 13.7835C7.84831 13.8207 7.85575 13.869 7.85575 13.9286ZM18.0008 7.35491C18.1422 7.49628 18.2129 7.66369 18.2129 7.85714C18.2129 8.0506 18.1422 8.21801 18.0008 8.35938L11.9294 14.4308C11.788 14.5722 11.6206 14.6429 11.4272 14.6429C11.2337 14.6429 11.0663 14.5722 10.9249 14.4308C10.7836 14.2894 10.7129 14.122 10.7129 13.9286V10.7143H5.71289C5.51944 10.7143 5.35203 10.6436 5.21066 10.5022C5.06929 10.3609 4.99861 10.1935 4.99861 10V5.71429C4.99861 5.52083 5.06929 5.35342 5.21066 5.21205C5.35203 5.07068 5.51944 5 5.71289 5H10.7129V1.78571C10.7129 1.59226 10.7836 1.42485 10.9249 1.28348C11.0663 1.14211 11.2337 1.07143 11.4272 1.07143C11.6206 1.07143 11.788 1.14211 11.9294 1.28348L18.0008 7.35491Z" fill="white"/>
</svg>
