<svg width="22" height="21" viewBox="0 0 22 21" fill="none" xmlns="http://www.w3.org/2000/svg">
<path d="M6.90541 10.7368C5.70006 10.774 4.71419 11.2502 3.94782 12.1654H2.45229C1.84217 12.1654 1.32878 12.0165 0.912109 11.7189C0.495443 11.4139 0.287109 10.9712 0.287109 10.3908C0.287109 7.76431 0.748419 6.45107 1.67104 6.45107C1.71568 6.45107 1.87565 6.52919 2.15095 6.68544C2.43369 6.84169 2.79827 7.00166 3.2447 7.16535C3.69113 7.3216 4.13384 7.39973 4.57282 7.39973C5.07134 7.39973 5.56613 7.31416 6.0572 7.14303C6.02 7.41833 6.0014 7.66386 6.0014 7.87964C6.0014 8.91386 6.30273 9.86625 6.90541 10.7368ZM18.8585 17.8462C18.8585 18.739 18.587 19.4421 18.0438 19.9555C17.5007 20.4764 16.7789 20.7368 15.8786 20.7368H6.12416C5.22387 20.7368 4.50214 20.4764 3.95898 19.9555C3.41583 19.4421 3.14425 18.739 3.14425 17.8462C3.14425 17.4518 3.15541 17.0686 3.17773 16.6966C3.2075 16.3171 3.25958 15.9116 3.33398 15.4801C3.41583 15.0411 3.51628 14.6356 3.63532 14.2636C3.75437 13.8915 3.91434 13.5307 4.11523 13.181C4.31613 12.8238 4.54678 12.5225 4.8072 12.277C5.06762 12.024 5.38384 11.8231 5.75586 11.6743C6.13532 11.5255 6.55199 11.4511 7.00586 11.4511C7.08026 11.4511 7.24023 11.5329 7.48577 11.6966C7.73131 11.8529 8.00288 12.0314 8.3005 12.2323C8.59812 12.4258 8.99619 12.6043 9.4947 12.768C9.99321 12.9243 10.4954 13.0024 11.0014 13.0024C11.5073 13.0024 12.0096 12.9243 12.5081 12.768C13.0066 12.6043 13.4047 12.4258 13.7023 12.2323C13.9999 12.0314 14.2715 11.8529 14.517 11.6966C14.7626 11.5329 14.9225 11.4511 14.9969 11.4511C15.4508 11.4511 15.8637 11.5255 16.2358 11.6743C16.6152 11.8231 16.9352 12.024 17.1956 12.277C17.456 12.5225 17.6867 12.8238 17.8876 13.181C18.0884 13.5307 18.2484 13.8915 18.3675 14.2636C18.4865 14.6356 18.5832 15.0411 18.6576 15.4801C18.7395 15.9116 18.7916 16.3171 18.8139 16.6966C18.8437 17.0686 18.8585 17.4518 18.8585 17.8462ZM6.59291 1.57383C7.15095 2.13187 7.42997 2.80523 7.42997 3.59392C7.42997 4.38261 7.15095 5.05598 6.59291 5.61401C6.03488 6.17205 5.36151 6.45107 4.57282 6.45107C3.78413 6.45107 3.11077 6.17205 2.55273 5.61401C1.9947 5.05598 1.71568 4.38261 1.71568 3.59392C1.71568 2.80523 1.9947 2.13187 2.55273 1.57383C3.11077 1.0158 3.78413 0.73678 4.57282 0.73678C5.36151 0.73678 6.03488 1.0158 6.59291 1.57383ZM14.0259 4.85508C14.8667 5.68842 15.2871 6.6966 15.2871 7.87964C15.2871 9.06267 14.8667 10.0746 14.0259 10.9154C13.1926 11.7487 12.1844 12.1654 11.0014 12.1654C9.81836 12.1654 8.80645 11.7487 7.96568 10.9154C7.13235 10.0746 6.71568 9.06267 6.71568 7.87964C6.71568 6.6966 7.13235 5.68842 7.96568 4.85508C8.80645 4.01431 9.81836 3.59392 11.0014 3.59392C12.1844 3.59392 13.1926 4.01431 14.0259 4.85508ZM21.7157 10.3908C21.7157 10.9712 21.5073 11.4139 21.0907 11.7189C20.674 12.0165 20.1606 12.1654 19.5505 12.1654H18.055C17.2886 11.2502 16.3027 10.774 15.0974 10.7368C15.7001 9.86625 16.0014 8.91386 16.0014 7.87964C16.0014 7.66386 15.9828 7.41833 15.9456 7.14303C16.4367 7.31416 16.9315 7.39973 17.43 7.39973C17.869 7.39973 18.3117 7.3216 18.7581 7.16535C19.2045 7.00166 19.5654 6.84169 19.8407 6.68544C20.1234 6.52919 20.2871 6.45107 20.3318 6.45107C21.2544 6.45107 21.7157 7.76431 21.7157 10.3908ZM19.4501 1.57383C20.0081 2.13187 20.2871 2.80523 20.2871 3.59392C20.2871 4.38261 20.0081 5.05598 19.4501 5.61401C18.892 6.17205 18.2187 6.45107 17.43 6.45107C16.6413 6.45107 15.9679 6.17205 15.4099 5.61401C14.8518 5.05598 14.5728 4.38261 14.5728 3.59392C14.5728 2.80523 14.8518 2.13187 15.4099 1.57383C15.9679 1.0158 16.6413 0.73678 17.43 0.73678C18.2187 0.73678 18.892 1.0158 19.4501 1.57383Z" fill="#E6E6E6"/>
</svg>
