<svg width="18" height="21" viewBox="0 0 18 21" fill="none" xmlns="http://www.w3.org/2000/svg">
<path d="M17.2812 19.25C17.5938 19.25 17.75 19.4062 17.75 19.7188V20.5H0.25V19.7188C0.25 19.4062 0.40625 19.25 0.71875 19.25H1.5V1.4375C1.5 1.17708 1.59115 0.955729 1.77344 0.773438C1.95573 0.591146 2.17708 0.5 2.4375 0.5H15.5625C15.8229 0.5 16.0443 0.591146 16.2266 0.773438C16.4089 0.955729 16.5 1.17708 16.5 1.4375V19.25H17.2812ZM5.25 3.46875V5.03125C5.25 5.34375 5.40625 5.5 5.71875 5.5H7.28125C7.59375 5.5 7.75 5.34375 7.75 5.03125V3.46875C7.75 3.15625 7.59375 3 7.28125 3H5.71875C5.40625 3 5.25 3.15625 5.25 3.46875ZM5.25 7.21875V8.78125C5.25 9.09375 5.40625 9.25 5.71875 9.25H7.28125C7.59375 9.25 7.75 9.09375 7.75 8.78125V7.21875C7.75 6.90625 7.59375 6.75 7.28125 6.75H5.71875C5.40625 6.75 5.25 6.90625 5.25 7.21875ZM7.28125 13C7.59375 13 7.75 12.8438 7.75 12.5312V10.9688C7.75 10.6562 7.59375 10.5 7.28125 10.5H5.71875C5.40625 10.5 5.25 10.6562 5.25 10.9688V12.5312C5.25 12.8438 5.40625 13 5.71875 13H7.28125ZM10.25 19.25V15.9688C10.25 15.6562 10.0938 15.5 9.78125 15.5H8.21875C7.90625 15.5 7.75 15.6562 7.75 15.9688V19.25H10.25ZM12.75 12.5312V10.9688C12.75 10.6562 12.5938 10.5 12.2812 10.5H10.7188C10.4062 10.5 10.25 10.6562 10.25 10.9688V12.5312C10.25 12.8438 10.4062 13 10.7188 13H12.2812C12.5938 13 12.75 12.8438 12.75 12.5312ZM12.75 8.78125V7.21875C12.75 6.90625 12.5938 6.75 12.2812 6.75H10.7188C10.4062 6.75 10.25 6.90625 10.25 7.21875V8.78125C10.25 9.09375 10.4062 9.25 10.7188 9.25H12.2812C12.5938 9.25 12.75 9.09375 12.75 8.78125ZM12.75 5.03125V3.46875C12.75 3.15625 12.5938 3 12.2812 3H10.7188C10.4062 3 10.25 3.15625 10.25 3.46875V5.03125C10.25 5.34375 10.4062 5.5 10.7188 5.5H12.2812C12.5938 5.5 12.75 5.34375 12.75 5.03125Z" fill="#FAFAFA"/>
</svg>
