<svg width="18" height="18" viewBox="0 0 18 18" fill="none" xmlns="http://www.w3.org/2000/svg">
<path d="M10.4258 4.80821V9.80821C10.4258 9.91238 10.3923 9.99794 10.3253 10.0649C10.2584 10.1319 10.1728 10.1654 10.0686 10.1654H6.49721C6.39304 10.1654 6.30748 10.1319 6.24051 10.0649C6.17355 9.99794 6.14007 9.91238 6.14007 9.80821V9.09392C6.14007 8.98976 6.17355 8.90419 6.24051 8.83723C6.30748 8.77026 6.39304 8.73678 6.49721 8.73678H8.99721V4.80821C8.99721 4.70404 9.03069 4.61848 9.09766 4.55151C9.16462 4.48455 9.25019 4.45107 9.35435 4.45107H10.0686C10.1728 4.45107 10.2584 4.48455 10.3253 4.55151C10.3923 4.61848 10.4258 4.70404 10.4258 4.80821ZM14.2539 11.7837C14.7971 10.8536 15.0686 9.83797 15.0686 8.73678C15.0686 7.63559 14.7971 6.61997 14.2539 5.68991C13.7108 4.75985 12.9741 4.02324 12.0441 3.48008C11.114 2.93693 10.0984 2.66535 8.99721 2.66535C7.89602 2.66535 6.88039 2.93693 5.95033 3.48008C5.02028 4.02324 4.28367 4.75985 3.74051 5.68991C3.19736 6.61997 2.92578 7.63559 2.92578 8.73678C2.92578 9.83797 3.19736 10.8536 3.74051 11.7837C4.28367 12.7137 5.02028 13.4503 5.95033 13.9935C6.88039 14.5366 7.89602 14.8082 8.99721 14.8082C10.0984 14.8082 11.114 14.5366 12.0441 13.9935C12.9741 13.4503 13.7108 12.7137 14.2539 11.7837ZM16.4191 4.43991C17.1855 5.74943 17.5686 7.18172 17.5686 8.73678C17.5686 10.2918 17.1855 11.7279 16.4191 13.0448C15.6527 14.3543 14.6111 15.3923 13.2941 16.1587C11.9846 16.925 10.5523 17.3082 8.99721 17.3082C7.44215 17.3082 6.00614 16.925 4.68917 16.1587C3.37965 15.3923 2.3417 14.3543 1.57533 13.0448C0.808966 11.7279 0.425781 10.2918 0.425781 8.73678C0.425781 7.18172 0.808966 5.74943 1.57533 4.43991C2.3417 3.12294 3.37965 2.08128 4.68917 1.31491C6.00614 0.548537 7.44215 0.165352 8.99721 0.165352C10.5523 0.165352 11.9846 0.548537 13.2941 1.31491C14.6111 2.08128 15.6527 3.12294 16.4191 4.43991Z" fill="#E6E6E6"/>
</svg>
