<svg width="16" height="16" viewBox="0 0 16 16" fill="none" xmlns="http://www.w3.org/2000/svg">
<path d="M15.4958 0.522495C15.8232 0.9094 15.8678 1.46 15.6297 2.17428C15.3916 2.88857 14.9899 3.52845 14.4244 4.09392L12.6275 5.8908L14.4132 13.6587C14.4504 13.8 14.4058 13.9228 14.2793 14.027L12.8507 15.0984C12.7986 15.143 12.728 15.1654 12.6387 15.1654C12.6089 15.1654 12.5829 15.1616 12.5605 15.1542C12.4489 15.1319 12.3708 15.0723 12.3262 14.9756L9.21233 9.30598L6.32171 12.1966L6.91323 14.3618C6.95043 14.4883 6.92067 14.6036 6.82394 14.7078L5.75251 15.7792C5.68555 15.8462 5.59998 15.8796 5.49582 15.8796H5.47349C5.36189 15.8648 5.2726 15.8164 5.20564 15.7345L3.09626 12.922L0.283761 10.8127C0.201916 10.7606 0.153553 10.675 0.138672 10.556C0.131231 10.4593 0.164714 10.3662 0.239118 10.277L1.31055 9.19437C1.37751 9.12741 1.46308 9.09392 1.56724 9.09392C1.61189 9.09392 1.64165 9.09764 1.65653 9.10509L3.82171 9.6966L6.71233 6.80598L1.04269 3.69214C0.938523 3.63261 0.875279 3.54333 0.852958 3.42428C0.838077 3.30523 0.871559 3.20479 0.953404 3.12294L2.38198 1.69437C2.48614 1.59764 2.59775 1.56788 2.7168 1.60508L10.1387 3.37964L11.9244 1.59392C12.4899 1.02845 13.1297 0.626662 13.844 0.388567C14.5583 0.150472 15.1089 0.195114 15.4958 0.522495Z" fill="#E6E6E6"/>
</svg>
