<svg width="21" height="15" viewBox="0 0 21 15" fill="none" xmlns="http://www.w3.org/2000/svg">
<path d="M19.5703 4.375C19.7266 4.375 19.8438 4.4401 19.9219 4.57031C20.026 4.67448 20.0651 4.80469 20.0391 4.96094L19.8047 5.89844C19.7266 6.13281 19.5703 6.25 19.3359 6.25H18.5547C19.1276 6.74479 19.4141 7.36979 19.4141 8.125V10C19.4141 10.625 19.2057 11.1719 18.7891 11.6406V13.75C18.7891 14.0885 18.6589 14.388 18.3984 14.6484C18.1641 14.8828 17.8776 15 17.5391 15H16.2891C15.9505 15 15.651 14.8828 15.3906 14.6484C15.1562 14.388 15.0391 14.0885 15.0391 13.75V12.5H5.03906V13.75C5.03906 14.0885 4.90885 14.388 4.64844 14.6484C4.41406 14.8828 4.1276 15 3.78906 15H2.53906C2.20052 15 1.90104 14.8828 1.64062 14.6484C1.40625 14.388 1.28906 14.0885 1.28906 13.75V11.6406C0.872396 11.1719 0.664062 10.625 0.664062 10V8.125C0.664062 7.36979 0.950521 6.74479 1.52344 6.25H0.742188C0.507812 6.25 0.351562 6.13281 0.273438 5.89844L0.0390625 4.96094C0.0130208 4.80469 0.0390625 4.67448 0.117188 4.57031C0.221354 4.4401 0.351562 4.375 0.507812 4.375H2.85156L3.51562 2.73438C3.67188 2.34375 3.88021 1.97917 4.14062 1.64062C4.42708 1.27604 4.73958 0.976562 5.07812 0.742188C5.44271 0.507812 5.83333 0.325521 6.25 0.195312C6.66667 0.0651042 7.09635 0 7.53906 0H12.5391C13.4245 0 14.2318 0.247396 14.9609 0.742188C15.7161 1.23698 16.25 1.90104 16.5625 2.73438L17.2266 4.375H19.5703ZM5.82031 3.67188L5.03906 5.625H15.0391L14.2578 3.67188C14.1276 3.33333 13.8932 3.0599 13.5547 2.85156C13.2422 2.61719 12.9036 2.5 12.5391 2.5H7.53906C7.17448 2.5 6.82292 2.61719 6.48438 2.85156C6.17188 3.0599 5.95052 3.33333 5.82031 3.67188ZM3.78906 10C3.84115 10 3.94531 10 4.10156 10C4.28385 10 4.41406 10 4.49219 10C4.57031 10 4.67448 10 4.80469 10C4.96094 9.97396 5.07812 9.94792 5.15625 9.92188C5.23438 9.89583 5.3125 9.86979 5.39062 9.84375C5.49479 9.79167 5.5599 9.72656 5.58594 9.64844C5.63802 9.57031 5.66406 9.47917 5.66406 9.375C5.66406 8.98438 5.44271 8.58073 5 8.16406C4.55729 7.72135 4.15365 7.5 3.78906 7.5C3.42448 7.5 3.125 7.61719 2.89062 7.85156C2.65625 8.08594 2.53906 8.38542 2.53906 8.75C2.53906 9.11458 2.65625 9.41406 2.89062 9.64844C3.125 9.88281 3.42448 10 3.78906 10ZM16.2891 10C16.6536 10 16.9531 9.88281 17.1875 9.64844C17.4219 9.41406 17.5391 9.11458 17.5391 8.75C17.5391 8.38542 17.4219 8.08594 17.1875 7.85156C16.9531 7.61719 16.6536 7.5 16.2891 7.5C16.0547 7.5 15.7812 7.60417 15.4688 7.8125C15.1823 8.02083 14.9349 8.28125 14.7266 8.59375C14.5182 8.88021 14.4141 9.14062 14.4141 9.375C14.4141 9.47917 14.4271 9.57031 14.4531 9.64844C14.5052 9.72656 14.5703 9.79167 14.6484 9.84375C14.7526 9.86979 14.8438 9.89583 14.9219 9.92188C15 9.94792 15.1042 9.97396 15.2344 10C15.3906 10 15.5078 10 15.5859 10C15.6641 10 15.7812 10 15.9375 10C16.1198 10 16.237 10 16.2891 10Z" fill="#FAFAFA"/>
</svg>
