<svg width="20" height="21" viewBox="0 0 20 21" fill="none" xmlns="http://www.w3.org/2000/svg">
<path d="M3.125 3.66406C5.02604 1.76302 7.31771 0.8125 10 0.8125C12.6823 0.8125 14.9609 1.76302 16.8359 3.66406C18.737 5.53906 19.6875 7.81771 19.6875 10.5C19.6875 13.1823 18.737 15.474 16.8359 17.375C14.9609 19.25 12.6823 20.1875 10 20.1875C7.31771 20.1875 5.02604 19.25 3.125 17.375C1.25 15.474 0.3125 13.1823 0.3125 10.5C0.3125 7.81771 1.25 5.53906 3.125 3.66406ZM17.8125 10.5C17.8125 8.33854 17.0443 6.5026 15.5078 4.99219C13.9974 3.45573 12.1615 2.6875 10 2.6875C9.97396 2.6875 9.92188 2.6875 9.84375 2.6875H9.76562L8.63281 3.54688C8.55469 3.59896 8.51562 3.67708 8.51562 3.78125V4.5625C8.51562 4.77083 8.61979 4.875 8.82812 4.875H9.45312C9.66146 4.875 9.76562 4.77083 9.76562 4.5625V4.25L10.3906 3.625H11.2109C11.3151 3.625 11.4062 3.67708 11.4844 3.78125C11.5885 3.85938 11.6406 3.96354 11.6406 4.09375C11.6406 4.19792 11.6016 4.30208 11.5234 4.40625L10.4688 5.42188C10.4167 5.47396 10.3646 5.51302 10.3125 5.53906L8.75 6.04688C8.59375 6.09896 8.51562 6.20312 8.51562 6.35938C8.51562 6.61979 8.42448 6.85417 8.24219 7.0625L7.46094 7.84375C7.33073 7.94792 7.26562 8.09115 7.26562 8.27344V9.25C7.26562 9.43229 7.31771 9.58854 7.42188 9.71875C7.55208 9.82292 7.70833 9.875 7.89062 9.875H8.75C9.01042 9.875 9.19271 9.77083 9.29688 9.5625L9.6875 8.82031C9.73958 8.6901 9.83073 8.625 9.96094 8.625H10.0781C10.2865 8.625 10.3906 8.72917 10.3906 8.9375C10.3906 9.14583 10.4948 9.25 10.7031 9.25H11.3281C11.5365 9.25 11.6406 9.14583 11.6406 8.9375V8.85938C11.6406 8.70312 11.7188 8.61198 11.875 8.58594L13.0859 8.15625C13.3724 8.05208 13.5156 7.85677 13.5156 7.57031V7.375C13.5156 7.21875 13.5677 7.07552 13.6719 6.94531C13.8021 6.8151 13.9583 6.75 14.1406 6.75H15.5859C15.6901 6.75 15.7812 6.80208 15.8594 6.90625C15.9635 6.98438 16.0156 7.08854 16.0156 7.21875V7.57031C16.0156 7.70052 15.9635 7.80469 15.8594 7.88281C15.7812 7.96094 15.6901 8 15.5859 8H14.3359C14.2057 8 14.1016 8.05208 14.0234 8.15625L13.6328 8.50781C13.5547 8.58594 13.5156 8.6901 13.5156 8.82031C13.5156 8.95052 13.5547 9.05469 13.6328 9.13281C13.737 9.21094 13.8411 9.25 13.9453 9.25H14.5703C14.7005 9.25 14.8047 9.30208 14.8828 9.40625L15.2734 9.75781C15.3516 9.83594 15.3906 9.9401 15.3906 10.0703V10.4219L14.9219 10.8906C14.6875 11.125 14.6875 11.3464 14.9219 11.5547L16.1719 12.8438C16.276 12.9479 16.4193 13 16.6016 13H17.3828C17.6693 12.1927 17.8125 11.3594 17.8125 10.5ZM5.50781 6.00781C5.42969 6.08594 5.39062 6.1901 5.39062 6.32031C5.39062 6.45052 5.42969 6.55469 5.50781 6.63281C5.61198 6.71094 5.71615 6.75 5.82031 6.75H6.44531C6.57552 6.75 6.67969 6.71094 6.75781 6.63281L7.14844 6.28125C7.22656 6.17708 7.26562 6.07292 7.26562 5.96875V5.34375C7.26562 5.21354 7.21354 5.10938 7.10938 5.03125C7.03125 4.92708 6.92708 4.875 6.79688 4.875C6.69271 4.875 6.60156 4.92708 6.52344 5.03125L5.50781 6.00781ZM10.3906 18.3125C11.7708 18.2344 13.0208 17.8307 14.1406 17.1016C15.2865 16.3724 16.1849 15.4219 16.8359 14.25H16.3281C16.1198 14.25 15.9505 14.1849 15.8203 14.0547L15.1172 13.3906C14.8828 13.1302 14.5964 13 14.2578 13H13.5156L11.8359 11.5547C11.5234 11.2682 11.1458 11.125 10.7031 11.125H9.45312C9.14062 11.125 8.84115 11.2161 8.55469 11.3984L6.875 12.4141C6.30208 12.7526 6.01562 13.2604 6.01562 13.9375V14.875C6.01562 15.4479 6.25 15.9167 6.71875 16.2812L7.57812 16.9453C7.99479 17.2318 8.46354 17.375 8.98438 17.375H9.76562C9.94792 17.375 10.0911 17.4401 10.1953 17.5703C10.3255 17.7005 10.3906 17.8438 10.3906 18V18.3125Z" fill="#FAFAFA"/>
</svg>
