<svg width="16" height="21" viewBox="0 0 16 21" fill="none" xmlns="http://www.w3.org/2000/svg">
<path d="M15.5 6.125C15.5 6.80208 15.3047 7.41406 14.9141 7.96094C14.5234 8.50781 14.0156 8.88542 13.3906 9.09375C13.3646 10.1875 13.0781 11.0729 12.5312 11.75C12.1927 12.1667 11.724 12.5052 11.125 12.7656C10.5521 13 10.0573 13.1562 9.64062 13.2344C9.22396 13.3125 8.65104 13.3776 7.92188 13.4297C6.61979 13.5599 5.76042 13.7292 5.34375 13.9375C5.08333 14.0677 4.88802 14.237 4.75781 14.4453C5.35677 14.6797 5.83854 15.0703 6.20312 15.6172C6.56771 16.138 6.75 16.724 6.75 17.375C6.75 18.2344 6.4375 18.9635 5.8125 19.5625C5.21354 20.1875 4.48438 20.5 3.625 20.5C2.76562 20.5 2.02344 20.1875 1.39844 19.5625C0.799479 18.9635 0.5 18.2344 0.5 17.375C0.5 16.9062 0.591146 16.4766 0.773438 16.0859C0.955729 15.6693 1.21615 15.3177 1.55469 15.0312C1.89323 14.7448 2.27083 14.5365 2.6875 14.4062V6.59375C2.03646 6.41146 1.5026 6.04688 1.08594 5.5C0.695312 4.95312 0.5 4.32812 0.5 3.625C0.5 2.76562 0.799479 2.03646 1.39844 1.4375C2.02344 0.8125 2.76562 0.5 3.625 0.5C4.48438 0.5 5.21354 0.8125 5.8125 1.4375C6.4375 2.03646 6.75 2.76562 6.75 3.625C6.75 4.32812 6.54167 4.95312 6.125 5.5C5.73438 6.04688 5.21354 6.41146 4.5625 6.59375V12.2188C5.1875 11.9323 6.24219 11.7109 7.72656 11.5547C8.35156 11.5026 8.82031 11.4635 9.13281 11.4375C9.44531 11.3854 9.79688 11.2943 10.1875 11.1641C10.5781 11.0078 10.8646 10.8125 11.0469 10.5781C11.3333 10.2396 11.4896 9.75781 11.5156 9.13281C11.0729 9.0026 10.6823 8.79427 10.3438 8.50781C10.0052 8.22135 9.73177 7.86979 9.52344 7.45312C9.34115 7.03646 9.25 6.59375 9.25 6.125C9.25 5.26562 9.54948 4.53646 10.1484 3.9375C10.7734 3.3125 11.5156 3 12.375 3C13.2344 3 13.9635 3.3125 14.5625 3.9375C15.1875 4.53646 15.5 5.26562 15.5 6.125ZM4.05469 3.19531C3.95052 3.0651 3.80729 3 3.625 3C3.44271 3 3.28646 3.0651 3.15625 3.19531C3.05208 3.29948 3 3.44271 3 3.625C3 3.80729 3.05208 3.96354 3.15625 4.09375C3.28646 4.19792 3.44271 4.25 3.625 4.25C3.80729 4.25 3.95052 4.19792 4.05469 4.09375C4.1849 3.96354 4.25 3.80729 4.25 3.625C4.25 3.44271 4.1849 3.29948 4.05469 3.19531ZM3.15625 17.8438C3.28646 17.9479 3.44271 18 3.625 18C3.80729 18 3.95052 17.9479 4.05469 17.8438C4.1849 17.7135 4.25 17.5573 4.25 17.375C4.25 17.1927 4.1849 17.0495 4.05469 16.9453C3.95052 16.8151 3.80729 16.75 3.625 16.75C3.44271 16.75 3.28646 16.8151 3.15625 16.9453C3.05208 17.0495 3 17.1927 3 17.375C3 17.5573 3.05208 17.7135 3.15625 17.8438ZM12.8047 5.69531C12.7005 5.5651 12.5573 5.5 12.375 5.5C12.1927 5.5 12.0365 5.5651 11.9062 5.69531C11.8021 5.79948 11.75 5.94271 11.75 6.125C11.75 6.30729 11.8021 6.46354 11.9062 6.59375C12.0365 6.69792 12.1927 6.75 12.375 6.75C12.5573 6.75 12.7005 6.69792 12.8047 6.59375C12.9349 6.46354 13 6.30729 13 6.125C13 5.94271 12.9349 5.79948 12.8047 5.69531Z" fill="#FAFAFA"/>
</svg>
