<svg width="64" height="63" viewBox="0 0 64 63" fill="none" xmlns="http://www.w3.org/2000/svg">
<path d="M7.77634 48.038V49.6151H0.54653V40.8706H7.6358V42.4478H2.6858V44.4465H6.54274V45.9612H2.6858V48.038H7.77634Z" fill="white"/>
<path d="M19.0368 46.0861C19.0368 47.2937 18.6985 48.2046 18.0218 48.8188C17.3452 49.433 16.3406 49.7401 15.0081 49.7401C13.686 49.7401 12.6867 49.433 12.01 48.8188C11.3438 48.2046 11.0106 47.2937 11.0106 46.0861V40.8706H13.1499V46.0549C13.1499 46.7419 13.3008 47.252 13.6027 47.5852C13.9046 47.9079 14.3731 48.0692 15.0081 48.0692C15.6535 48.0692 16.1272 47.9079 16.4291 47.5852C16.7414 47.252 16.8975 46.7419 16.8975 46.0549V40.8706H19.0368V46.0861Z" fill="white"/>
<path d="M26.6932 46.3828H25.0224V49.6151H22.8988V40.8706H27.0524C28.1142 40.8706 28.947 41.1153 29.5508 41.6046C30.165 42.0834 30.4721 42.7601 30.4721 43.6345C30.4721 44.2487 30.3107 44.7744 29.988 45.2117C29.6757 45.6385 29.2281 45.9508 28.6451 46.1486L30.9405 49.6151H28.6139L26.6932 46.3828ZM25.0224 44.9618H26.8182C27.8488 44.9618 28.3641 44.5402 28.3641 43.697C28.3641 42.8538 27.8488 42.4322 26.8182 42.4322H25.0224V44.9618Z" fill="white"/>
<path d="M38.019 40.7457C39.4035 40.7457 40.4914 41.1465 41.2825 41.9481C42.0841 42.7393 42.4849 43.8375 42.4849 45.2429C42.4849 46.6483 42.0841 47.7517 41.2825 48.5533C40.4914 49.3445 39.4035 49.7401 38.019 49.7401C36.624 49.7401 35.5257 49.3445 34.7242 48.5533C33.933 47.7517 33.5374 46.6483 33.5374 45.2429C33.5374 43.8375 33.933 42.7393 34.7242 41.9481C35.5257 41.1465 36.624 40.7457 38.019 40.7457ZM38.019 42.4165C37.2694 42.4165 36.6917 42.6612 36.2857 43.1505C35.8797 43.6293 35.6767 44.3268 35.6767 45.2429C35.6767 46.159 35.8797 46.8617 36.2857 47.3509C36.6917 47.8298 37.2694 48.0692 38.019 48.0692C38.7581 48.0692 39.3306 47.8298 39.7366 47.3509C40.1426 46.8617 40.3456 46.159 40.3456 45.2429C40.3456 44.3268 40.1426 43.6293 39.7366 43.1505C39.3306 42.6612 38.7581 42.4165 38.019 42.4165Z" fill="white"/>
<path d="M50.0737 40.8706C51.1147 40.8706 51.9371 41.1257 52.5409 41.6358C53.1447 42.1459 53.4466 42.8538 53.4466 43.7594C53.4466 44.6547 53.1447 45.3574 52.5409 45.8675C51.9371 46.3672 51.1147 46.617 50.0737 46.617H48.1375V49.6151H45.9982V40.8706H50.0737ZM49.7927 45.0867C50.8233 45.0867 51.3386 44.6495 51.3386 43.7751C51.3386 42.8798 50.8233 42.4322 49.7927 42.4322H48.1375V45.0867H49.7927Z" fill="white"/>
<path d="M64 48.038V49.6151H56.7702V40.8706H63.8595V42.4478H58.9095V44.4465H62.7664V45.9612H58.9095V48.038H64Z" fill="white"/>
<path d="M3.85694 53.8853C4.70016 53.8853 5.41845 54.0362 6.01183 54.3381C6.60521 54.6296 7.08927 55.0825 7.46404 55.6967L6.52713 56.5399C6.24606 55.9777 5.90252 55.5769 5.49653 55.3375C5.09054 55.0877 4.54921 54.9627 3.87256 54.9627C3.17508 54.9627 2.61814 55.0981 2.20174 55.3687C1.79574 55.6394 1.59274 55.9777 1.59274 56.3837C1.59274 56.696 1.70205 56.9459 1.92066 57.1332C2.13927 57.3206 2.41514 57.4664 2.74827 57.5705C3.08139 57.6642 3.53423 57.7631 4.10678 57.8672C4.8459 58.0129 5.43927 58.1586 5.88691 58.3044C6.33454 58.4501 6.71972 58.6896 7.04243 59.0227C7.36514 59.3558 7.5265 59.8086 7.5265 60.3812C7.5265 61.1411 7.19338 61.7501 6.52713 62.2082C5.87129 62.6558 5.00726 62.8796 3.93502 62.8796C2.97729 62.8796 2.1653 62.7183 1.49905 62.3956C0.843218 62.0624 0.343533 61.6096 0 61.037L0.936909 60.1782C1.18675 60.6987 1.56151 61.0995 2.0612 61.3806C2.56088 61.6616 3.18549 61.8022 3.93502 61.8022C4.6429 61.8022 5.21025 61.6825 5.63707 61.443C6.06388 61.2036 6.27729 60.8705 6.27729 60.4437C6.27729 60.1418 6.16798 59.9023 5.94937 59.7254C5.73076 59.538 5.46009 59.4027 5.13738 59.3194C4.81467 59.2257 4.36703 59.1216 3.79448 59.0071C3.06577 58.8717 2.46719 58.7312 1.99874 58.5855C1.54069 58.4397 1.15032 58.2003 0.827602 57.8672C0.50489 57.534 0.343533 57.0812 0.343533 56.5086C0.343533 56.0298 0.484069 55.5926 0.765142 55.197C1.04621 54.791 1.45221 54.4735 1.98312 54.2444C2.52445 54.005 3.14905 53.8853 3.85694 53.8853Z" fill="white"/>
<path d="M17.1946 54.0102V62.7547H15.9454V58.8665H11.0578V62.7547H9.80863V54.0102H11.0578V57.7891H15.9454V54.0102H17.1946Z" fill="white"/>
<path d="M27.409 59.4443C27.409 60.579 27.0915 61.4378 26.4564 62.0208C25.8318 62.5933 24.9157 62.8796 23.7082 62.8796C22.511 62.8796 21.5949 62.5933 20.9599 62.0208C20.3353 61.4378 20.023 60.579 20.023 59.4443V54.0102H21.2722V59.2725C21.2722 60.1262 21.47 60.7612 21.8656 61.1776C22.2716 61.594 22.8858 61.8022 23.7082 61.8022C24.541 61.8022 25.1552 61.594 25.5508 61.1776C25.9568 60.7612 26.1598 60.1262 26.1598 59.2725V54.0102H27.409V59.4443Z" fill="white"/>
<path d="M36.9102 55.0877H33.7091V62.7547H32.4599V55.0877H29.2431V54.0102H36.9102V55.0877Z" fill="white"/>
<path d="M45.5107 55.0877H42.3096V62.7547H41.0604V55.0877H37.8437V54.0102H45.5107V55.0877Z" fill="white"/>
<path d="M53.9082 61.6773V62.7547H47.4436V54.0102H48.6928V61.6773H53.9082Z" fill="white"/>
<path d="M63.3849 61.6773V62.7547H56.6236V54.0102H63.1819V55.0877H57.8728V57.7891H62.0264V58.8665H57.8728V61.6773H63.3849Z" fill="white"/>
<path fill-rule="evenodd" clip-rule="evenodd" d="M52.9929 22.2087C54.6537 20.5479 54.6537 17.8553 52.9929 16.1945L42.4559 5.65746L35.6838 12.4295L39.4488 16.1945C41.1095 17.8553 41.1095 20.5479 39.4488 22.2087L35.6838 25.9737L42.4559 32.7457L52.9929 22.2087Z" fill="#304FFE"/>
<path fill-rule="evenodd" clip-rule="evenodd" d="M11.0071 10.537C9.34633 12.1978 9.34633 14.8905 11.0071 16.5512L21.5441 27.0883L28.3162 20.3162L24.5513 16.5513C22.8905 14.8905 22.8905 12.1978 24.5513 10.537L28.3162 6.77207L21.5441 -9.9542e-06L11.0071 10.537Z" fill="#304FFE"/>
<path fill-rule="evenodd" clip-rule="evenodd" d="M49.2265 12.428L39.5418 22.1127C41.109 20.4457 41.078 17.8235 39.4488 16.1944L35.6838 12.4294L42.4559 5.65735L49.2265 12.428Z" fill="#0026CA"/>
<path fill-rule="evenodd" clip-rule="evenodd" d="M14.7788 20.3229L21.5441 27.0882L28.3161 20.3161L24.5512 16.5512C22.9589 14.9589 22.8932 12.418 24.3542 10.7475L14.7788 20.3229Z" fill="#0026CA"/>
</svg>
