<svg width="18" height="13" viewBox="0 0 18 13" fill="none" xmlns="http://www.w3.org/2000/svg">
<path d="M11.8583 7C11.8583 7.15179 11.7333 7.28571 11.5725 7.28571H9.57255V10.4286C9.57255 10.5804 9.43862 10.7143 9.28683 10.7143H7.57255C7.42076 10.7143 7.28683 10.5804 7.28683 10.4286V7.28571H5.28683C5.12612 7.28571 5.00112 7.16071 5.00112 7C5.00112 6.91964 5.03683 6.84821 5.0904 6.78571L8.22433 3.65178C8.2779 3.59821 8.35826 3.57143 8.42969 3.57143C8.51005 3.57143 8.58147 3.59821 8.63505 3.65178L11.7779 6.79464C11.8315 6.84821 11.8583 6.92857 11.8583 7ZM17.5725 9.57143C17.5725 7.98214 16.4743 6.59821 14.9208 6.23214C15.1618 5.86607 15.2868 5.4375 15.2868 5C15.2868 3.74107 14.26 2.71428 13.0011 2.71428C12.4565 2.71428 11.9297 2.91071 11.519 3.26786C10.8136 1.55357 9.14397 0.428571 7.28683 0.428571C4.76005 0.428571 2.7154 2.47321 2.7154 5C2.7154 5.125 2.72433 5.25 2.73326 5.38393C1.33147 6.03571 0.429688 7.44643 0.429688 9C0.429688 11.2054 2.22433 13 4.42969 13H14.144C16.0368 13 17.5725 11.4643 17.5725 9.57143Z" fill="#050505"/>
</svg>
