<svg width="14" height="15" viewBox="0 0 14 15" fill="none" xmlns="http://www.w3.org/2000/svg">
<path d="M3.5692 13V9.57143H10.4263V13H3.5692ZM11.5692 13V9.28571C11.5692 8.8125 11.1853 8.42857 10.7121 8.42857H3.28348C2.81027 8.42857 2.42634 8.8125 2.42634 9.28571V13H1.28348V1.57143H2.42634V5.28571C2.42634 5.75893 2.81027 6.14286 3.28348 6.14286H8.42634C8.89955 6.14286 9.28348 5.75893 9.28348 5.28571V1.57143C9.46205 1.57143 9.81027 1.71428 9.93527 1.83928L12.4442 4.34821C12.5603 4.46428 12.7121 4.83036 12.7121 5V13H11.5692ZM8.14062 4.71428C8.14062 4.86607 8.0067 5 7.85491 5H6.14063C5.98884 5 5.85491 4.86607 5.85491 4.71428V1.85714C5.85491 1.70536 5.98884 1.57143 6.14063 1.57143H7.85491C8.0067 1.57143 8.14062 1.70536 8.14062 1.85714V4.71428ZM13.8549 5C13.8549 4.52678 13.5871 3.875 13.2478 3.53571L10.7478 1.03571C10.4085 0.696428 9.7567 0.428571 9.28348 0.428571H0.997768C0.524554 0.428571 0.140625 0.812499 0.140625 1.28571V13.2857C0.140625 13.7589 0.524554 14.1429 0.997768 14.1429H12.9978C13.471 14.1429 13.8549 13.7589 13.8549 13.2857V5Z" fill="white"/>
</svg>
