<svg width="15" height="18" viewBox="0 0 15 18" fill="none" xmlns="http://www.w3.org/2000/svg">
<path d="M14.647 7.42857V16.3571C14.647 16.6548 14.5429 16.9077 14.3345 17.1161C14.1262 17.3244 13.8732 17.4286 13.5756 17.4286H1.43276C1.13514 17.4286 0.882161 17.3244 0.673828 17.1161C0.465495 16.9077 0.361328 16.6548 0.361328 16.3571V1.35714C0.361328 1.05952 0.465495 0.806547 0.673828 0.598213C0.882161 0.38988 1.13514 0.285713 1.43276 0.285713H7.50419V6.35714C7.50419 6.65476 7.60835 6.90774 7.81669 7.11607C8.02502 7.3244 8.27799 7.42857 8.57561 7.42857H14.647ZM14.6136 6H8.93276V0.319196C9.54288 0.430803 10.0339 0.672618 10.406 1.04464L13.8881 4.52679C14.2601 4.89881 14.502 5.38988 14.6136 6Z" fill="black"/>
</svg>
