<svg width="18" height="13" viewBox="0 0 18 13" fill="none" xmlns="http://www.w3.org/2000/svg">
<path d="M11.8583 7.57143C11.8583 7.65179 11.8225 7.72321 11.769 7.78571L8.63505 10.9196C8.58147 10.9732 8.50112 11 8.42969 11C8.34933 11 8.2779 10.9732 8.22433 10.9196L5.08147 7.77679C5.0279 7.72321 5.00112 7.64286 5.00112 7.57143C5.00112 7.41964 5.12612 7.28571 5.28683 7.28571H7.28683V4.14286C7.28683 3.99107 7.42076 3.85714 7.57255 3.85714H9.28683C9.43862 3.85714 9.57255 3.99107 9.57255 4.14286V7.28571H11.5725C11.7333 7.28571 11.8583 7.41071 11.8583 7.57143ZM17.5725 9.57143C17.5725 7.98214 16.4743 6.59821 14.9208 6.23214C15.1618 5.86607 15.2868 5.4375 15.2868 5C15.2868 3.74107 14.26 2.71428 13.0011 2.71428C12.4565 2.71428 11.9297 2.91071 11.519 3.26786C10.8136 1.55357 9.14397 0.428571 7.28683 0.428571C4.76005 0.428571 2.7154 2.47321 2.7154 5C2.7154 5.125 2.72433 5.25 2.73326 5.38393C1.33147 6.03571 0.429688 7.44643 0.429688 9C0.429688 11.2054 2.22433 13 4.42969 13H14.144C16.0368 13 17.5725 11.4643 17.5725 9.57143Z" fill="#050505"/>
</svg>
