<svg width="14" height="15" viewBox="0 0 14 15" fill="none" xmlns="http://www.w3.org/2000/svg">
<path d="M5.28237 5.85714V11C5.28237 11.0833 5.25558 11.1518 5.20201 11.2054C5.14844 11.2589 5.07999 11.2857 4.99665 11.2857H4.42522C4.34189 11.2857 4.27344 11.2589 4.21987 11.2054C4.16629 11.1518 4.13951 11.0833 4.13951 11V5.85714C4.13951 5.77381 4.16629 5.70536 4.21987 5.65179C4.27344 5.59821 4.34189 5.57143 4.42522 5.57143H4.99665C5.07999 5.57143 5.14844 5.59821 5.20201 5.65179C5.25558 5.70536 5.28237 5.77381 5.28237 5.85714ZM7.56808 5.85714V11C7.56808 11.0833 7.5413 11.1518 7.48772 11.2054C7.43415 11.2589 7.3657 11.2857 7.28237 11.2857H6.71094C6.6276 11.2857 6.55915 11.2589 6.50558 11.2054C6.45201 11.1518 6.42522 11.0833 6.42522 11V5.85714C6.42522 5.77381 6.45201 5.70536 6.50558 5.65179C6.55915 5.59821 6.6276 5.57143 6.71094 5.57143H7.28237C7.3657 5.57143 7.43415 5.59821 7.48772 5.65179C7.5413 5.70536 7.56808 5.77381 7.56808 5.85714ZM9.8538 5.85714V11C9.8538 11.0833 9.82701 11.1518 9.77344 11.2054C9.71987 11.2589 9.65141 11.2857 9.56808 11.2857H8.99665C8.91332 11.2857 8.84487 11.2589 8.7913 11.2054C8.73772 11.1518 8.71094 11.0833 8.71094 11V5.85714C8.71094 5.77381 8.73772 5.70536 8.7913 5.65179C8.84487 5.59821 8.91332 5.57143 8.99665 5.57143H9.56808C9.65141 5.57143 9.71987 5.59821 9.77344 5.65179C9.82701 5.70536 9.8538 5.77381 9.8538 5.85714ZM10.9967 12.3214V3.85714H2.99665V12.3214C2.99665 12.4524 3.01749 12.5744 3.05915 12.6875C3.10082 12.7946 3.14249 12.875 3.18415 12.9286C3.23177 12.9762 3.26451 13 3.28237 13H10.7109C10.7288 13 10.7586 12.9762 10.8002 12.9286C10.8478 12.875 10.8925 12.7946 10.9342 12.6875C10.9758 12.5744 10.9967 12.4524 10.9967 12.3214ZM4.99665 2.71428H8.99665L8.56808 1.66964C8.52641 1.61607 8.47582 1.58333 8.4163 1.57143H5.58594C5.52641 1.58333 5.47582 1.61607 5.43415 1.66964L4.99665 2.71428ZM13.2824 3V3.57143C13.2824 3.65476 13.2556 3.72321 13.202 3.77678C13.1484 3.83036 13.08 3.85714 12.9967 3.85714H12.1395V12.3214C12.1395 12.8155 11.9996 13.2411 11.7199 13.5982C11.4401 13.9613 11.1038 14.1429 10.7109 14.1429H3.28237C2.88951 14.1429 2.5532 13.9673 2.27344 13.6161C1.99368 13.2708 1.85379 12.8512 1.85379 12.3571V3.85714H0.996652C0.913318 3.85714 0.844866 3.83036 0.791295 3.77678C0.737723 3.72321 0.710938 3.65476 0.710938 3.57143V3C0.710938 2.91667 0.737723 2.84821 0.791295 2.79464C0.844866 2.74107 0.913318 2.71428 0.996652 2.71428H3.75558L4.38058 1.22321C4.46987 1.00298 4.63058 0.815476 4.86272 0.660714C5.09487 0.505952 5.32999 0.428571 5.56808 0.428571H8.42522C8.66332 0.428571 8.89844 0.505952 9.13058 0.660714C9.36272 0.815476 9.52344 1.00298 9.61272 1.22321L10.2377 2.71428H12.9967C13.08 2.71428 13.1484 2.74107 13.202 2.79464C13.2556 2.84821 13.2824 2.91667 13.2824 3Z" fill="#171717"/>
</svg>
